<svg xmlns="http://www.w3.org/2000/svg" viewBox="0 0 32 32">
  <path fill="#fff" d="M16.02 5.33A10.52 10.52 0 0 0 6.9 21.1L5.33 26.67l5.72-1.5a10.55 10.55 0 1 0 4.97-19.84Zm0 1.94a8.6 8.6 0 1 1-4.38 16l-.32-.18-3.4.9.9-3.3-.2-.34a8.6 8.6 0 0 1 7.4-13.08Zm-3.03 4.38c-.18 0-.47.07-.72.34-.25.28-.95.93-.95 2.27 0 1.34.97 2.64 1.11 2.82.14.18 1.87 3 4.64 4.08 2.3.91 2.77.73 3.28.68.5-.05 1.6-.65 1.83-1.29.23-.63.23-1.18.16-1.29-.07-.11-.25-.18-.52-.32-.27-.14-1.6-.8-1.85-.89-.25-.09-.43-.14-.61.14-.18.27-.7.89-.86 1.07-.16.18-.32.2-.59.07-.27-.14-1.14-.42-2.17-1.34-.8-.71-1.34-1.6-1.5-1.87-.16-.27-.02-.42.12-.55.13-.13.27-.32.41-.48.14-.16.18-.27.27-.45.09-.18.05-.34-.02-.48-.07-.14-.61-1.48-.84-2.03-.22-.53-.45-.46-.61-.47h-.53Z"/>
</svg>
